<svg xmlns="http://www.w3.org/2000/svg" viewBox="0 0 64 64" role="img" aria-label="StayNEP favicon">
  <defs>
    <linearGradient id="bg" x1="0%" y1="0%" x2="100%" y2="100%">
      <stop offset="0%" stop-color="#081c33"/>
      <stop offset="62%" stop-color="#163a5f"/>
      <stop offset="100%" stop-color="#1e5278"/>
    </linearGradient>
    <linearGradient id="gold" x1="0%" y1="0%" x2="100%" y2="100%">
      <stop offset="0%" stop-color="#e8c96a"/>
      <stop offset="100%" stop-color="#d1a93a"/>
    </linearGradient>
  </defs>

  <rect width="64" height="64" rx="14" fill="url(#bg)"/>
  <rect x="6" y="6" width="52" height="52" rx="10" fill="none" stroke="#e8c96a" stroke-opacity="0.3" stroke-width="1.2"/>

  <path d="M41.3 18.4c-3.5-2.2-10.4-2.2-14 0-2.2 1.4-2.2 3.6 0 5 1.7 1.1 4.5 1.8 7 2.4 3.5.8 7.2 1.7 9.1 3.6 2.7 2.7 2.3 6.9-1 9.4-3.9 3-11.9 3.2-16.1.4" fill="none" stroke="url(#gold)" stroke-width="3.6" stroke-linecap="round"/>
  <path d="M22.4 45.6c3.6 2.4 11.5 2.3 15.5-.2 2.4-1.5 2.7-3.9.6-5.5-1.6-1.2-4.4-2-7-2.6-3.8-.9-7.7-1.8-9.7-3.9-2.8-2.9-2.1-7.1 1.4-9.5 3.8-2.5 10.9-2.7 14.8-.4" fill="none" stroke="#f7fbff" stroke-width="3.6" stroke-linecap="round" stroke-opacity="0.95"/>

  <rect x="30.2" y="12.8" width="3.6" height="38.4" rx="1.8" fill="#f7fbff" fill-opacity="0.92"/>
</svg>
